<svg width="129" height="75" viewBox="0 0 129 75" fill="none" xmlns="http://www.w3.org/2000/svg">
<g clip-path="url(#clip0_191_120)">
<path d="M91.709 71.4758C91.709 71.4758 91.6439 71.4758 91.6005 71.4758C91.5679 71.4758 91.5246 71.4758 91.492 71.4758C90.6894 71.4758 89.9409 71.077 89.5071 70.3872C87.8584 67.833 86.2205 65.268 84.5718 62.7137V72.5966C84.5718 73.9007 83.5305 74.9461 82.2072 74.9461C80.8839 74.9461 79.8427 73.9007 79.8427 72.5966V54.6846C79.8427 53.6499 80.5368 52.7123 81.5347 52.4213C81.5673 52.4429 81.589 52.4536 81.6107 52.4752C82.6303 52.1842 83.7041 52.583 84.2681 53.4559C86.7086 57.2496 89.1491 61.0432 91.5896 64.8369C94.0302 61.0432 96.4707 57.2496 98.9112 53.4559C99.4752 52.5722 100.549 52.1734 101.569 52.4752C101.601 52.4536 101.623 52.4429 101.655 52.4213C102.642 52.7123 103.347 53.6499 103.347 54.6846V72.5966C103.347 73.9007 102.306 74.9461 100.983 74.9461C99.6596 74.9461 98.6183 73.9007 98.6183 72.5966V62.7137C96.9696 65.268 95.3318 67.833 93.6831 70.3872C93.2492 71.077 92.5008 71.4758 91.6981 71.4758H91.709Z" fill="#F3F4F7"/>
<path d="M37.7683 54.7062C37.7683 53.8224 38.2455 53.0249 39.0374 52.6261C39.6556 52.3028 40.2739 52.3675 40.9138 52.3675H55.2966C55.7521 52.3675 56.1969 52.3243 56.6524 52.4213C58.3879 52.777 59.1146 54.857 57.9866 56.215C57.5093 56.797 56.8585 57.0556 56.1101 57.0556H50.524C50.524 57.0556 50.4915 57.088 50.4915 57.1095V70.9477C50.4915 71.5405 50.5132 72.1332 50.4915 72.726C50.459 73.3942 50.1552 74.0193 49.6238 74.4396C48.756 75.1401 47.487 75.1401 46.6301 74.4396C46.1853 74.0732 45.9467 73.6744 45.8274 73.114C45.7949 72.9739 45.784 72.8445 45.7732 72.7044C45.7623 72.2194 45.7732 71.7345 45.7732 71.2495V57.1203C45.7732 57.1203 45.8166 57.0664 45.7732 57.0664H40.2522C39.5472 57.0664 39.0048 56.9155 38.4733 56.4198C38.0069 55.9779 37.7574 55.3636 37.7574 54.7277L37.7683 54.7062Z" fill="#F3F4F7"/>
<path d="M117.188 52.389C118.077 52.389 118.902 52.874 119.303 53.6392C122.438 59.6098 125.562 65.5805 128.696 71.5512H128.729C129.347 72.6936 128.891 74.1378 127.731 74.7198C126.581 75.3341 125.128 74.8814 124.542 73.739C123.956 72.6074 123.36 71.4865 122.774 70.3549H111.938C111.363 71.4758 110.788 72.5966 110.224 73.7175C109.79 74.515 108.966 75 108.109 75C107.73 75 107.382 74.8922 107.035 74.7305C105.853 74.1486 105.398 72.7367 105.983 71.5835C109.02 65.6129 112.068 59.6422 115.105 53.6715C115.507 52.8955 116.309 52.389 117.199 52.389H117.188ZM117.242 59.8469L114.292 65.6344H120.268L117.242 59.8469Z" fill="#F3F4F7"/>
<path d="M76.7731 54.7061C76.7731 56.0102 75.7318 57.0556 74.4085 57.0556H65.8288V61.0756H74.4085C75.721 61.0756 76.7731 62.121 76.7731 63.4251C76.7731 64.7291 75.7318 65.7745 74.4085 65.7745H65.8288V70.2795H74.4085C75.721 70.2795 76.7731 71.3141 76.7731 72.629C76.7731 73.9438 75.7318 74.9784 74.4085 74.9784H63.4642C62.1517 74.9784 61.0996 73.933 61.0996 72.629V54.7169C61.0996 53.4128 62.1409 52.3674 63.4642 52.3674H74.4085C75.721 52.3674 76.7731 53.4128 76.7731 54.7169V54.7061Z" fill="#F3F4F7"/>
<path d="M61.8263 23.8935C61.8263 24.3462 62.2059 24.7234 62.6615 24.7234H70.9484C71.4039 24.7234 71.7836 25.1006 71.7836 25.5532V34.9511C71.7836 35.4038 71.4039 35.781 70.9484 35.781H61.49C61.0345 35.781 60.6548 35.4038 60.6548 34.9511V26.7172C60.6548 26.2646 60.2752 25.8873 59.8196 25.8873H37.7791C37.3236 25.8873 36.9439 26.2646 36.9439 26.7172V50.6862C36.9439 51.1388 36.5643 51.516 36.1087 51.516H11.9639C11.5084 51.516 11.1287 51.8932 11.1287 52.3459V60.5798C11.1287 61.0325 10.7491 61.4097 10.2935 61.4097H0.835197C0.379635 61.4097 0 61.0325 0 60.5798V51.1819C0 50.7293 0.379635 50.3521 0.835197 50.3521H9.12209C9.57765 50.3521 9.95729 49.9749 9.95729 49.5222V26.728C9.95729 26.2753 9.57765 25.8981 9.12209 25.8981H5.81384C5.35828 25.8981 4.97864 25.5209 4.97864 25.0683V20.6172C4.97864 20.1645 5.35828 19.7873 5.81384 19.7873H10.2935C10.7491 19.7873 11.1287 20.1645 11.1287 20.6172V23.9043C11.1287 24.357 11.5084 24.7342 11.9639 24.7342H34.9156C35.3711 24.7342 35.7508 24.357 35.7508 23.9043V0.829861C35.7508 0.377209 36.1304 0 36.586 0H60.9802C61.4358 0 61.8154 0.377209 61.8154 0.829861V23.8935H61.8263Z" fill="#E7411F"/>
</g>
<defs>
<clipPath id="clip0_191_120">
<rect width="129" height="75" fill="white"/>
</clipPath>
</defs>
</svg>
